<?xml version="1.0" encoding="UTF-8"?>
<svg width="513px" height="512px" viewBox="0 0 513 512" version="1.1" xmlns="http://www.w3.org/2000/svg" xmlns:xlink="http://www.w3.org/1999/xlink">
    <!-- Generator: Sketch 40.3 (33839) - http://www.bohemiancoding.com/sketch -->
    <title>coffee-grounds</title>
    <desc>Created with Sketch.</desc>
    <defs></defs>
    <g id="Page-1" stroke="none" stroke-width="1" fill="none" fill-rule="evenodd">
        <g id="coffee-grounds" fill="#FC5261">
            <g id="Group">
                <g id="Shape">
                    <g>
                        <path d="M494.431,116.027 C493.718,114.635 492.63,113.537 491.253,112.805 C478.983,101.09 462.4,93.857 444.2,93.857 L435.667,93.857 C336.68,93.857 256.467,174.07 256.467,273.057 C256.467,290.785 263.321,306.985 274.502,319.154 C275.215,320.546 276.303,321.643 277.679,322.376 C289.95,334.091 306.533,341.324 324.733,341.324 L333.266,341.324 C432.253,341.324 512.466,261.111 512.466,162.124 C512.466,144.397 505.613,128.196 494.431,116.027 L494.431,116.027 Z M435.666,110.924 L444.199,110.924 C457.244,110.924 469.184,115.875 478.25,123.982 C476.326,170.742 437.694,204.791 384.465,204.791 C331.73,204.791 287.798,241.254 276.407,289.897 C274.553,284.616 273.531,278.952 273.531,273.057 C273.533,183.457 346.066,110.924 435.666,110.924 L435.666,110.924 Z M333.266,324.257 L324.733,324.257 C311.687,324.257 299.746,319.306 290.679,311.197 C292.623,261.686 333.664,221.857 384.466,221.857 C439.078,221.857 481.256,190.786 492.457,145.087 C494.355,150.424 495.4,156.156 495.4,162.123 C495.4,251.724 422.866,324.257 333.266,324.257 L333.266,324.257 Z"></path>
                        <path d="M105.426,283.297 C115.666,287.564 125.906,290.124 136.146,290.124 C142.639,290.124 149.131,289.242 155.415,287.541 C156.498,287.463 157.567,287.138 158.543,286.615 C175.777,281.136 191.135,269.399 200.147,252.577 L204.414,244.897 C225.747,203.084 229.161,156.15 213.801,111.777 C197.588,65.697 163.454,29.004 118.228,7.67 C101.327,-0.575 82.639,-1.432 65.905,3.616 C64.13,3.67 62.411,4.232 61.024,5.259 C45.173,11.284 31.519,22.768 23.508,38.39 L19.241,46.07 C-2.092,87.883 -5.506,134.817 9.854,179.19 C25.213,225.271 59.346,261.964 105.426,283.297 L105.426,283.297 Z M196.733,116.897 C210.386,157.004 207.826,199.67 188.2,237.217 L183.933,244.897 C178.032,256.307 167.954,264.804 156.217,269.405 C135.117,258.195 119.742,239.918 113.96,218.443 C107.133,195.403 112.253,170.656 125.907,149.323 C125.907,149.323 126.76,149.323 126.76,148.47 C148.063,100.722 132.687,47.917 91.523,17.269 C98.159,17.803 104.357,19.425 110.547,22.176 C151.506,41.804 182.226,75.084 196.733,116.897 L196.733,116.897 Z M34.6,52.897 L38.867,46.07 C44.295,34.129 54.214,25.646 65.763,21.049 C112.267,44.012 132.289,95.688 111.4,141.643 C95.187,166.39 90.067,197.11 97.747,224.416 C103.146,243.612 114.034,260.272 129.507,272.925 C123.65,272.252 117.819,270.629 112.253,267.936 C71.293,248.309 40.573,215.029 26.066,173.216 C12.413,133.111 14.973,90.444 34.6,52.897 L34.6,52.897 Z"></path>
                        <path d="M285.48,363.511 L279.507,357.538 C204.414,287.565 88.36,290.978 20.094,363.511 C7.92,376.495 0.395,392.568 0.419,409.525 C-0.183,411.406 -0.152,413.38 0.672,415.145 C2.17,432.649 9.732,447.824 22.653,459.937 L28.626,465.91 C64.466,496.63 110.546,511.99 155.773,511.99 C204.413,511.99 252.2,494.07 288.04,459.083 C300.84,445.43 308.52,428.363 307.667,410.443 C306.813,392.524 299.133,375.457 285.48,363.511 L285.48,363.511 Z M31.186,375.457 C92.626,309.75 198.439,307.19 266.706,370.337 L273.533,376.31 C283.293,385.256 289.164,396.532 289.694,409.391 C248.765,446.2 203.262,444.256 162.6,402.764 C120.374,360.538 70.819,356.3 22.177,390.03 C24.452,384.787 27.499,379.882 31.186,375.457 L31.186,375.457 Z M39.72,453.111 L33.747,447.138 C24.227,438.411 18.402,427.469 17.629,415.003 C64.977,373.743 109.847,373.905 150.654,414.712 C175.401,439.459 202.707,452.259 230.014,452.259 C248.347,452.259 266.68,446.567 284.386,434.875 C281.975,439.373 278.867,443.512 275.24,447.139 C212.946,508.577 107.133,511.137 39.72,453.111 L39.72,453.111 Z"></path>
                    </g>
                </g>
            </g>
        </g>
    </g>
</svg>