<?xml version="1.0" encoding="UTF-8"?>
<svg width="56px" height="52px" viewBox="0 0 56 52" version="1.1" xmlns="http://www.w3.org/2000/svg" xmlns:xlink="http://www.w3.org/1999/xlink">
    <!-- Generator: Sketch 40.3 (33839) - http://www.bohemiancoding.com/sketch -->
    <title>coffee-maker</title>
    <desc>Created with Sketch.</desc>
    <defs></defs>
    <g id="Page-1" stroke="none" stroke-width="1" fill="none" fill-rule="evenodd">
        <g id="coffee-maker" fill="#FC5261">
            <g id="Group">
                <path d="M18,33 L11,33 C10.447,33 10,33.447 10,34 C10,34.553 10.447,35 11,35 L18,35 C18.553,35 19,34.553 19,34 C19,33.447 18.553,33 18,33 L18,33 Z" id="Shape"></path>
                <path d="M18,29 L13,29 C12.447,29 12,29.447 12,30 C12,30.553 12.447,31 13,31 L18,31 C18.553,31 19,30.553 19,30 C19,29.447 18.553,29 18,29 L18,29 Z" id="Shape"></path>
                <path d="M18,25 L11,25 C10.447,25 10,25.447 10,26 C10,26.553 10.447,27 11,27 L18,27 C18.553,27 19,26.553 19,26 C19,25.447 18.553,25 18,25 L18,25 Z" id="Shape"></path>
                <path d="M18,21 L13,21 C12.447,21 12,21.447 12,22 C12,22.553 12.447,23 13,23 L18,23 C18.553,23 19,22.553 19,22 C19,21.447 18.553,21 18,21 L18,21 Z" id="Shape"></path>
                <path d="M55.997,25.515 C55.866,16.101 48.662,8.323 39.505,7.165 C39.811,6.633 40,6.024 40,5.367 L40,1 C40,0.715 39.878,0.442 39.664,0.253 C39.451,0.063 39.168,-0.027 38.883,0.007 L4.883,4.007 C4.503,4.052 4.181,4.31 4.056,4.672 C3.93,5.034 4.021,5.437 4.293,5.707 L10,11.414 L10,15.73 C4.161,20.018 0,28.563 0,36.5 C0,38.272 0.217,39.948 0.63,41.524 C0.632,41.531 0.63,41.537 0.632,41.544 C0.64,41.575 0.652,41.603 0.66,41.634 C0.79,42.116 0.937,42.589 1.105,43.051 C1.117,43.085 1.128,43.121 1.141,43.155 C1.316,43.628 1.511,44.09 1.726,44.541 C1.766,44.625 1.81,44.706 1.851,44.79 C2.025,45.139 2.211,45.481 2.409,45.817 C2.477,45.932 2.542,46.048 2.612,46.161 C2.848,46.54 3.098,46.911 3.365,47.271 C3.454,47.392 3.552,47.507 3.644,47.625 C3.846,47.882 4.056,48.135 4.274,48.382 C4.39,48.513 4.505,48.644 4.626,48.772 C4.934,49.1 5.253,49.421 5.591,49.73 C5.673,49.804 5.761,49.874 5.844,49.948 C6.14,50.209 6.447,50.462 6.765,50.708 C6.883,50.799 7,50.889 7.121,50.978 C7.527,51.278 7.944,51.571 8.384,51.848 C8.544,51.947 8.729,52 8.917,52 L41.083,52 C41.271,52 41.456,51.947 41.615,51.847 C42.098,51.544 42.553,51.221 42.995,50.889 C43.07,50.832 43.145,50.776 43.219,50.719 C47.66,47.287 50,42.413 50,36.5 C50,28.562 45.839,20.018 40,15.73 L40,14.208 C45.418,15.193 49.628,19.634 49.973,25.127 C49.991,25.402 49.999,25.682 50,25.965 C50.003,27.425 51.064,28.709 52.469,28.954 C52.645,28.985 52.821,29 52.996,29 C53.701,29 54.386,28.755 54.93,28.297 C55.61,27.725 56,26.888 56,26 L55.997,25.515 L55.997,25.515 Z M38,2.125 L38,5.367 C38,6.268 37.268,7 36.367,7 L34.633,7 C34.395,7 34.163,7.026 33.938,7.07 C33.863,7.085 33.794,7.111 33.721,7.13 C33.574,7.169 33.428,7.209 33.288,7.265 C33.206,7.298 33.13,7.34 33.051,7.378 C32.929,7.438 32.809,7.499 32.695,7.572 C32.617,7.621 32.545,7.676 32.472,7.731 C32.367,7.809 32.266,7.891 32.17,7.98 C32.102,8.043 32.038,8.108 31.975,8.176 C31.886,8.272 31.804,8.373 31.726,8.478 C31.671,8.551 31.618,8.624 31.569,8.702 C31.497,8.816 31.435,8.936 31.375,9.058 C31.337,9.137 31.296,9.213 31.263,9.295 C31.208,9.434 31.167,9.578 31.129,9.725 C31.11,9.799 31.084,9.87 31.069,9.945 C31.065,9.964 31.058,9.981 31.054,10 L11.414,10 L7.166,5.752 L38,2.125 L38,2.125 Z M9.209,50 C8.888,49.792 8.581,49.574 8.281,49.352 C8.144,49.25 8.013,49.144 7.88,49.039 C7.73,48.921 7.58,48.802 7.435,48.68 C7.269,48.539 7.108,48.396 6.949,48.25 C6.856,48.165 6.764,48.079 6.673,47.992 C6.491,47.817 6.312,47.639 6.14,47.457 C6.096,47.411 6.054,47.363 6.011,47.317 C4.952,46.167 4.096,44.887 3.452,43.489 C3.426,43.432 3.4,43.376 3.374,43.318 C3.318,43.193 3.269,43.064 3.216,42.937 C4.81,43.166 6.481,42.69 7.684,41.555 C8.961,40.352 11.036,40.352 12.313,41.555 C14.344,43.471 17.653,43.471 19.684,41.555 C20.961,40.352 23.036,40.352 24.313,41.555 C26.344,43.471 29.653,43.471 31.684,41.555 C32.961,40.352 35.036,40.352 36.313,41.555 C38.344,43.471 41.653,43.471 43.684,41.555 C44.682,40.615 46.201,40.41 47.435,40.986 C47.422,41.034 47.409,41.081 47.396,41.129 C47.304,41.471 47.198,41.806 47.084,42.137 C47.048,42.241 47.016,42.347 46.978,42.45 C46.85,42.798 46.706,43.137 46.554,43.471 C46.468,43.658 46.375,43.841 46.282,44.024 C46.202,44.181 46.119,44.336 46.033,44.49 C45.919,44.695 45.805,44.901 45.681,45.1 C45.679,45.103 45.676,45.107 45.674,45.11 C45.38,45.582 45.054,46.035 44.705,46.474 C44.612,46.59 44.519,46.707 44.423,46.821 C44.272,47.001 44.118,47.179 43.957,47.352 C43.781,47.541 43.597,47.725 43.41,47.908 C43.233,48.081 43.05,48.25 42.863,48.416 C42.652,48.603 42.437,48.787 42.214,48.966 C42.096,49.06 41.977,49.154 41.856,49.246 C41.512,49.506 41.162,49.761 40.79,50.002 L9.209,50.002 L9.209,50 Z M48,36.5 C48,37.363 47.937,38.198 47.827,39.009 C45.957,38.342 43.785,38.713 42.314,40.1 C41.037,41.303 38.962,41.303 37.685,40.1 C35.654,38.184 32.345,38.184 30.314,40.1 C29.037,41.303 26.962,41.303 25.685,40.1 C23.654,38.184 20.345,38.184 18.314,40.1 C17.037,41.303 14.962,41.303 13.685,40.1 C11.654,38.184 8.346,38.184 6.313,40.1 C5.286,41.067 3.723,41.256 2.465,40.623 C2.157,39.323 2,37.947 2,36.5 C2,28.94 6.042,20.798 11.647,17 L38.352,17 C43.958,20.798 48,28.941 48,36.5 L48,36.5 Z M38,15 L12,15 L12,12 L31,12 L31,13 L31,14 L32,14 L37.73,14 C37.821,14 37.909,14.011 38,14.013 L38,15 L38,15 Z M53.643,26.766 C53.414,26.96 53.117,27.037 52.813,26.984 C52.358,26.905 52.001,26.456 52,25.961 C51.999,25.636 51.988,25.317 51.969,25.003 C51.535,18.076 45.865,12.586 38.845,12.054 C38.724,12.022 38.599,12 38.468,12 L37.73,12 L33,12 L33,11 L33,10.633 C33,9.733 33.732,9 34.633,9 L36.367,9 L37.15,9 C46.312,9 53.87,16.421 53.997,25.541 L54,26 C54,26.296 53.87,26.575 53.643,26.766 L53.643,26.766 Z" id="Shape"></path>
            </g>
        </g>
    </g>
</svg>