<?xml version="1.0" encoding="UTF-8"?>
<svg width="353px" height="463px" viewBox="0 0 353 463" version="1.1" xmlns="http://www.w3.org/2000/svg" xmlns:xlink="http://www.w3.org/1999/xlink">
    <!-- Generator: Sketch 40.3 (33839) - http://www.bohemiancoding.com/sketch -->
    <title>coffee-maker-1</title>
    <desc>Created with Sketch.</desc>
    <defs></defs>
    <g id="Page-1" stroke="none" stroke-width="1" fill="none" fill-rule="evenodd">
        <g id="coffee-maker-1" fill="#FC5261">
            <path d="M272.323,250.4 L278.274,219.159 L350.428,103.714 C353.413,98.938 353.571,92.91 350.84,87.985 C348.11,83.06 342.915,80 337.283,80 L297.364,80 L209.122,39.273 C212.907,35.1 215.217,29.565 215.217,23.5 C215.217,10.542 204.675,3.55271368e-15 191.717,3.55271368e-15 C178.759,3.55271368e-15 168.217,10.542 168.217,23.5 C168.217,29.565 170.527,35.1 174.312,39.273 L86.07,80 L23.717,80 C10.759,80 0.217,90.542 0.217,103.5 L0.217,256.7 C0.217,273.407 13.809,287 30.523,287 C39.067,287 47.256,283.366 52.989,277.031 C58.722,270.696 61.523,262.186 60.673,253.685 L48.713,134.083 C48.638,133.335 49.021,132.886 49.355,132.641 C49.689,132.398 50.23,132.166 50.924,132.462 L92,150.067 L111.111,250.4 C112.097,255.577 115.61,259.736 120.217,261.725 L120.217,281.279 C115.614,283.269 112.106,287.425 111.12,292.599 L80.359,454.096 C79.941,456.291 80.524,458.559 81.948,460.281 C83.372,462.003 85.491,463 87.726,463 L295.726,463 C297.961,463 300.08,462.003 301.504,460.281 C302.928,458.559 303.511,456.292 303.093,454.096 L272.333,292.6 C271.346,287.419 267.829,283.258 263.217,281.272 L263.217,261.725 C267.825,259.737 271.337,255.578 272.323,250.4 L272.323,250.4 Z M56.834,118.676 C51.381,116.338 45.27,117.037 40.485,120.546 C35.701,124.055 33.197,129.673 33.788,135.576 L45.748,255.178 C46.184,259.534 44.806,263.721 41.869,266.966 C38.931,270.212 34.902,272 30.517,272 C22.08,272 15.217,265.137 15.217,256.7 L15.217,103.5 C15.217,98.813 19.03,95 23.717,95 L81.51,95 L88.614,132.296 L56.834,118.676 L56.834,118.676 Z M301.924,95 L337.284,95 C337.408,95 337.578,95 337.721,95.258 C337.864,95.516 337.773,95.66 337.708,95.766 L286.028,178.454 L301.924,95 L301.924,95 Z M191.717,15 C196.404,15 200.217,18.813 200.217,23.5 C200.217,28.187 196.404,32 191.717,32 C187.03,32 183.217,28.187 183.217,23.5 C183.217,18.813 187.03,15 191.717,15 L191.717,15 Z M191.718,47.76 L261.57,80 L121.865,80 L191.718,47.76 L191.718,47.76 Z M212.436,248 L170.993,248 L159.784,95 L223.645,95 L212.436,248 L212.436,248 Z M248.217,263 L248.217,280 L135.217,280 L135.217,263 L248.217,263 L248.217,263 Z M96.781,95 L144.744,95 L155.953,248 L126.338,248 C126.098,248 125.892,247.829 125.847,247.594 L96.781,95 L96.781,95 Z M144.752,448 L96.79,448 L125.856,295.406 C125.901,295.171 126.107,295 126.347,295 L155.961,295 L144.752,448 L144.752,448 Z M159.793,448 L171.002,295 L212.445,295 L223.654,448 L159.793,448 L159.793,448 Z M286.663,448 L238.694,448 L227.485,295 L257.106,295 C257.346,295 257.552,295.171 257.597,295.406 L286.663,448 L286.663,448 Z M257.589,247.594 C257.544,247.829 257.338,248 257.098,248 L227.477,248 L238.686,95 L286.655,95 L257.589,247.594 L257.589,247.594 Z" id="Shape"></path>
        </g>
    </g>
</svg>