<?xml version="1.0" encoding="UTF-8"?>
<svg width="54px" height="60px" viewBox="0 0 54 60" version="1.1" xmlns="http://www.w3.org/2000/svg" xmlns:xlink="http://www.w3.org/1999/xlink">
    <!-- Generator: Sketch 40.3 (33839) - http://www.bohemiancoding.com/sketch -->
    <title>espresso-tamper</title>
    <desc>Created with Sketch.</desc>
    <defs></defs>
    <g id="Page-1" stroke="none" stroke-width="1" fill="none" fill-rule="evenodd">
        <g id="espresso-tamper" transform="translate(-1.000000, 0.000000)" fill="#F39E2C">
            <path d="M52.613,38.998 L36.999,38.998 L36.999,32.998 L32.999,32.998 L32.999,26.756 C32.999,24.618 33.921,22.61 35.465,21.382 C38.347,19.093 39.999,15.672 39.999,11.998 C39.999,8.582 38.536,5.318 35.986,3.043 C33.438,0.769 30.011,-0.314 26.592,0.079 C21.239,0.688 16.831,5.001 16.111,10.333 C15.541,14.557 17.168,18.666 20.464,21.326 C22.051,22.607 22.999,24.706 22.999,26.939 L22.999,32.998 L18.999,32.998 L18.999,38.998 L3.385,38.998 C2.07,38.998 0.999,40.068 0.999,41.384 L0.999,52.613 C0.999,53.928 2.069,54.999 3.385,54.999 L4.09,54.999 C4.568,57.832 7.032,59.999 10,59.999 L46,59.999 C48.967,59.999 51.431,57.832 51.91,54.999 L52.615,54.999 C53.93,54.999 55.001,53.929 55.001,52.613 L55.001,41.384 C54.999,40.069 53.929,38.998 52.613,38.998 L52.613,38.998 Z M21.72,19.77 C18.973,17.553 17.617,14.125 18.094,10.601 C18.694,6.163 22.364,2.575 26.82,2.066 C29.719,1.74 32.501,2.613 34.655,4.536 C36.781,6.432 38,9.152 38,11.999 C38,15.06 36.623,17.909 34.222,19.817 C32.174,21.445 31,23.974 31,26.756 L31,32.998 L25,32.998 L25,26.94 C24.999,24.066 23.804,21.452 21.72,19.77 L21.72,19.77 Z M20.999,34.998 L22.999,34.998 L32.999,34.998 L34.999,34.998 L34.999,38.998 L20.999,38.998 L20.999,34.998 L20.999,34.998 Z M45.999,57.998 L9.999,57.998 C8.139,57.998 6.57,56.722 6.126,54.998 L49.872,54.998 C49.428,56.722 47.86,57.998 45.999,57.998 L45.999,57.998 Z M52.999,52.613 C52.999,52.826 52.826,52.999 52.613,52.999 L51.999,52.999 L3.999,52.999 L3.385,52.999 C3.172,52.999 2.999,52.826 2.999,52.613 L2.999,41.384 C2.999,41.171 3.172,40.998 3.385,40.998 L18.999,40.998 L36.999,40.998 L52.613,40.998 C52.826,40.998 52.999,41.171 52.999,41.384 L52.999,52.613 L52.999,52.613 Z" id="Shape"></path>
        </g>
    </g>
</svg>