<?xml version="1.0" encoding="UTF-8"?>
<svg width="512px" height="512px" viewBox="0 0 512 512" version="1.1" xmlns="http://www.w3.org/2000/svg" xmlns:xlink="http://www.w3.org/1999/xlink">
    <!-- Generator: Sketch 40.3 (33839) - http://www.bohemiancoding.com/sketch -->
    <title>espresso-machine</title>
    <desc>Created with Sketch.</desc>
    <defs></defs>
    <g id="Page-1" stroke="none" stroke-width="1" fill="none" fill-rule="evenodd">
        <g id="espresso-machine" fill="#F39E2C">
            <g id="Page-1">
                <g id="coffee-machine">
                    <g id="Group">
                        <g id="Shape">
                            <g id="Group">
                                <path d="M486.4,162.133 L418.133,162.133 C406.642,162.133 397.3,169.096 393.909,179.2 L375.466,179.2 L375.466,153.6 L443.733,153.6 C462.506,153.6 477.866,138.24 477.866,119.467 L477.866,34.133 C477.867,15.36 462.507,0 443.733,0 L34.133,0 C15.36,0 0,15.36 0,34.133 L0,477.866 C0,496.64 15.36,512 34.133,512 L443.733,512 C462.506,512 477.866,496.64 477.866,477.867 C477.866,459.094 462.506,443.734 443.733,443.734 L349.413,443.734 C357.01,438.938 363.98,433.247 370.174,426.802 C371.775,426.789 373.317,426.667 374.613,426.667 L380.586,426.667 C396.799,426.667 411.306,424.96 424.106,406.187 C436.906,389.12 435.199,376.32 431.786,368.64 C426.811,358.69 415.901,352.308 401.059,350.447 C401.06,350.253 401.066,350.06 401.066,349.866 C401.066,344.746 397.653,341.333 392.533,341.333 L187.733,341.333 C182.613,341.333 179.2,344.746 179.2,349.866 C179.2,389.475 199.774,424.114 230.854,443.733 L170.667,443.733 C161.28,443.733 153.6,436.053 153.6,426.666 L153.6,170.666 C153.6,161.279 161.28,153.599 170.667,153.599 L204.8,153.599 L204.8,196.266 C204.8,210.773 215.893,221.866 230.4,221.866 L256,221.866 L256,230.399 C256,235.519 259.413,238.932 264.533,238.932 C269.653,238.932 273.066,235.519 273.066,230.399 L273.066,221.866 L307.2,221.866 L307.2,230.399 C307.2,235.519 310.613,238.932 315.733,238.932 C320.853,238.932 324.266,235.519 324.266,230.399 L324.266,221.866 L349.866,221.866 C364.373,221.866 375.466,210.773 375.466,196.266 L393.909,196.266 C397.3,206.369 406.643,213.333 418.133,213.333 L486.4,213.333 C500.907,213.333 512,202.24 512,187.733 C512,173.226 500.907,162.133 486.4,162.133 L486.4,162.133 L486.4,162.133 Z M417.28,376.32 C420.693,382.293 414.72,390.827 411.307,395.947 C402.914,406.858 395.337,409.508 383.723,409.592 C391.798,396.932 397.372,382.509 399.759,367.01 C408.912,368.716 414.757,371.274 417.28,376.32 L417.28,376.32 L417.28,376.32 Z M196.267,358.4 L383.06,358.4 C381.213,378.547 373.57,397.015 360.107,412.16 C359.709,412.558 359.412,413.005 359.178,413.485 C342.093,432.07 317.707,443.733 290.134,443.733 C240.64,443.733 200.533,406.187 196.267,358.4 L196.267,358.4 L196.267,358.4 Z M170.667,136.533 C151.894,136.533 136.534,151.893 136.534,170.666 L136.534,426.666 C136.534,445.439 151.894,460.799 170.667,460.799 L443.734,460.799 C453.121,460.799 460.801,468.479 460.801,477.866 C460.801,487.253 453.121,494.933 443.734,494.933 L34.134,494.933 C24.747,494.933 17.067,487.253 17.067,477.866 L17.067,460.8 L59.734,460.8 C64.854,460.8 68.267,457.387 68.267,452.267 C68.267,447.147 64.854,443.734 59.734,443.734 L17.067,443.734 L17.067,426.667 L59.734,426.667 C64.854,426.667 68.267,423.254 68.267,418.134 C68.267,413.014 64.854,409.601 59.734,409.601 L17.067,409.601 L17.067,392.534 L59.734,392.534 C64.854,392.534 68.267,389.121 68.267,384.001 C68.267,378.881 64.854,375.468 59.734,375.468 L17.067,375.468 L17.067,358.4 L59.734,358.4 C64.854,358.4 68.267,354.987 68.267,349.867 C68.267,344.747 64.854,341.334 59.734,341.334 L17.067,341.334 L17.067,34.134 C17.067,24.747 24.747,17.067 34.134,17.067 L443.734,17.067 C453.121,17.067 460.801,24.747 460.801,34.134 L460.801,119.467 C460.801,128.854 453.121,136.534 443.734,136.534 L375.467,136.534 L204.8,136.534 L170.667,136.534 L170.667,136.533 L170.667,136.533 Z M358.4,196.267 C358.4,201.387 354.987,204.8 349.867,204.8 L315.734,204.8 L264.534,204.8 L230.4,204.8 C225.28,204.8 221.867,201.387 221.867,196.267 L221.867,153.6 L358.4,153.6 L358.4,196.267 L358.4,196.267 L358.4,196.267 Z M486.4,196.267 L418.133,196.267 C413.013,196.267 409.6,192.854 409.6,187.734 C409.6,182.614 413.013,179.201 418.133,179.201 L486.4,179.201 C491.52,179.201 494.933,182.614 494.933,187.734 C494.933,192.854 491.52,196.267 486.4,196.267 L486.4,196.267 L486.4,196.267 Z" id="Shape"></path>
                                <path d="M273.067,264.533 C273.067,259.413 269.654,256 264.534,256 C259.414,256 256,259.413 256,264.533 L256,273.066 C256,278.186 259.413,281.599 264.533,281.599 C269.653,281.599 273.066,278.186 273.066,273.066 L273.066,264.533 L273.067,264.533 L273.067,264.533 Z" id="Shape"></path>
                                <path d="M264.533,298.667 C259.413,298.667 256,302.08 256,307.2 L256,315.733 C256,320.853 259.413,324.266 264.533,324.266 C269.653,324.266 273.066,320.853 273.066,315.733 L273.066,307.2 C273.067,302.08 269.653,298.667 264.533,298.667 L264.533,298.667 L264.533,298.667 Z" id="Shape"></path>
                                <path d="M324.267,264.533 C324.267,259.413 320.854,256 315.734,256 C310.614,256 307.201,259.413 307.201,264.533 L307.201,273.066 C307.201,278.186 310.614,281.599 315.734,281.599 C320.854,281.599 324.267,278.186 324.267,273.066 L324.267,264.533 L324.267,264.533 L324.267,264.533 Z" id="Shape"></path>
                                <path d="M315.733,298.667 C310.613,298.667 307.2,302.08 307.2,307.2 L307.2,315.733 C307.2,320.853 310.613,324.266 315.733,324.266 C320.853,324.266 324.266,320.853 324.266,315.733 L324.266,307.2 C324.267,302.08 320.853,298.667 315.733,298.667 L315.733,298.667 L315.733,298.667 Z" id="Shape"></path>
                                <path d="M76.8,34.133 C52.907,34.133 34.133,52.906 34.133,76.8 C34.133,100.693 52.906,119.467 76.8,119.467 C100.693,119.467 119.467,100.694 119.467,76.8 C119.467,52.907 100.693,34.133 76.8,34.133 L76.8,34.133 L76.8,34.133 Z M76.8,102.4 C62.293,102.4 51.2,91.307 51.2,76.8 C51.2,62.293 62.293,51.2 76.8,51.2 C91.307,51.2 102.4,62.293 102.4,76.8 C102.4,91.307 91.307,102.4 76.8,102.4 L76.8,102.4 L76.8,102.4 Z" id="Shape"></path>
                                <path d="M179.2,34.133 C155.307,34.133 136.533,52.906 136.533,76.8 C136.533,100.693 155.306,119.467 179.2,119.467 C203.094,119.467 221.867,100.694 221.867,76.8 C221.867,52.907 203.093,34.133 179.2,34.133 L179.2,34.133 L179.2,34.133 Z M179.2,102.4 C164.693,102.4 153.6,91.307 153.6,76.8 C153.6,62.293 164.693,51.2 179.2,51.2 C193.707,51.2 204.8,62.293 204.8,76.8 C204.8,91.307 193.707,102.4 179.2,102.4 L179.2,102.4 L179.2,102.4 Z" id="Shape"></path>
                            </g>
                        </g>
                    </g>
                </g>
            </g>
        </g>
    </g>
</svg>