<?xml version="1.0" encoding="UTF-8"?>
<svg width="56px" height="56px" viewBox="0 0 56 56" version="1.1" xmlns="http://www.w3.org/2000/svg" xmlns:xlink="http://www.w3.org/1999/xlink">
    <!-- Generator: Sketch 40.3 (33839) - http://www.bohemiancoding.com/sketch -->
    <title>tea-loose</title>
    <desc>Created with Sketch.</desc>
    <defs></defs>
    <g id="Page-1" stroke="none" stroke-width="1" fill="none" fill-rule="evenodd">
        <g id="tea-loose" fill="#91D131">
            <g id="Group">
                <path d="M55.224,25.076 L50.322,11.854 C49.688,10.147 48.049,9 46.241,9 L40.5,9 C40.5,4.037 36.463,0 31.5,0 C26.537,0 22.5,4.037 22.5,9 L22.5,14 C22.5,17.859 19.359,21 15.5,21 C13.567,21 11.814,20.212 10.546,18.94 C12.771,18.646 14.5,16.757 14.5,14.453 L14.5,6.547 C14.5,4.04 12.46,2 9.953,2 L5.047,2 C2.54,2 0.5,4.04 0.5,6.547 L0.5,14.453 C0.5,16.96 2.54,19 5.047,19 L8.022,19 C9.638,21.41 12.387,23 15.5,23 C20.463,23 24.5,18.963 24.5,14 L24.5,9 C24.5,5.141 27.641,2 31.5,2 C35.359,2 38.5,5.141 38.5,9 L31.759,9 C29.951,9 28.312,10.147 27.679,11.854 L22.777,25.075 C22.593,25.569 22.501,26.087 22.501,26.615 L22.501,51.605 C22.501,54.028 24.455,56 26.857,56 L51.144,56 C53.546,56 55.5,54.028 55.5,51.605 L55.5,26.615 C55.5,26.087 55.407,25.569 55.224,25.076 L55.224,25.076 Z M5.047,17 C3.643,17 2.5,15.857 2.5,14.453 L2.5,6.547 C2.5,5.143 3.643,4 5.047,4 L9.953,4 C11.357,4 12.5,5.143 12.5,6.547 L12.5,14.453 C12.5,15.857 11.357,17 9.953,17 L9.185,17 C8.75,16.089 8.5,15.074 8.5,14 L6.5,14 C6.5,15.053 6.691,16.06 7.025,17 L5.047,17 L5.047,17 Z M40.5,16.278 C41.095,16.625 41.5,17.263 41.5,18 C41.5,19.103 40.603,20 39.5,20 C38.397,20 37.5,19.103 37.5,18 C37.5,17.263 37.905,16.625 38.5,16.278 L38.5,18 L40.5,18 L40.5,16.278 L40.5,16.278 Z M51.144,54 L26.856,54 C25.556,54 24.5,52.926 24.5,51.605 L24.5,46.414 L25.793,47.707 L27.207,46.293 L24.5,43.586 L24.5,36.414 L25.793,37.707 L27.207,36.293 L24.5,33.586 L24.5,26.615 C24.5,26.326 24.551,26.042 24.651,25.771 L29.553,12.549 C29.897,11.622 30.783,10.999 31.758,10.999 L38.5,10.999 L38.5,14.141 C36.78,14.588 35.5,16.14 35.5,17.999 C35.5,20.205 37.294,21.999 39.5,21.999 C41.706,21.999 43.5,20.205 43.5,17.999 C43.5,16.14 42.22,14.588 40.5,14.141 L40.5,11 L46.241,11 C47.216,11 48.102,11.623 48.446,12.55 L53.348,25.773 C53.449,26.043 53.499,26.327 53.499,26.616 L53.499,34.587 L52.499,33.587 L49.792,36.294 L51.206,37.708 L52.499,36.415 L53.499,37.415 L53.499,44.587 L52.499,43.587 L49.792,46.294 L51.206,47.708 L52.499,46.415 L53.499,47.415 L53.499,51.606 C53.5,52.926 52.443,54 51.144,54 L51.144,54 Z" id="Shape"></path>
                <polygon id="Shape" points="25.793 51.293 27.207 52.707 28.5 51.414 29.793 52.707 31.207 51.293 28.5 48.586"></polygon>
                <polygon id="Shape" points="32.793 51.293 34.207 52.707 35.5 51.414 36.793 52.707 38.207 51.293 35.5 48.586"></polygon>
                <polygon id="Shape" points="39.793 51.293 41.207 52.707 42.5 51.414 43.793 52.707 45.207 51.293 42.5 48.586"></polygon>
                <polygon id="Shape" points="46.793 51.293 48.207 52.707 49.5 51.414 50.793 52.707 52.207 51.293 49.5 48.586"></polygon>
                <polygon id="Shape" points="28.5 41.414 29.793 42.707 31.207 41.293 28.5 38.586 25.793 41.293 27.207 42.707"></polygon>
                <polygon id="Shape" points="34.207 42.707 35.5 41.414 36.793 42.707 38.207 41.293 35.5 38.586 32.793 41.293"></polygon>
                <polygon id="Shape" points="41.207 42.707 42.5 41.414 43.793 42.707 45.207 41.293 42.5 38.586 39.793 41.293"></polygon>
                <polygon id="Shape" points="48.207 42.707 49.5 41.414 50.793 42.707 52.207 41.293 49.5 38.586 46.793 41.293"></polygon>
                <polygon id="Shape" points="34.207 46.293 31.5 43.586 28.793 46.293 30.207 47.707 31.5 46.414 32.793 47.707"></polygon>
                <polygon id="Shape" points="41.207 46.293 38.5 43.586 35.793 46.293 37.207 47.707 38.5 46.414 39.793 47.707"></polygon>
                <polygon id="Shape" points="48.207 46.293 45.5 43.586 42.793 46.293 44.207 47.707 45.5 46.414 46.793 47.707"></polygon>
                <polygon id="Shape" points="31.5 36.414 32.793 37.707 34.207 36.293 31.5 33.586 28.793 36.293 30.207 37.707"></polygon>
                <polygon id="Shape" points="38.5 36.414 39.793 37.707 41.207 36.293 38.5 33.586 35.793 36.293 37.207 37.707"></polygon>
                <polygon id="Shape" points="45.5 36.414 46.793 37.707 48.207 36.293 45.5 33.586 42.793 36.293 44.207 37.707"></polygon>
            </g>
        </g>
    </g>
</svg>