<?xml version="1.0" encoding="UTF-8"?>
<svg width="56px" height="47px" viewBox="0 0 56 47" version="1.1" xmlns="http://www.w3.org/2000/svg" xmlns:xlink="http://www.w3.org/1999/xlink">
    <!-- Generator: Sketch 40.3 (33839) - http://www.bohemiancoding.com/sketch -->
    <title>teapot</title>
    <desc>Created with Sketch.</desc>
    <defs></defs>
    <g id="Page-1" stroke="none" stroke-width="1" fill="none" fill-rule="evenodd">
        <g id="teapot" fill="#91D131">
            <g id="Group">
                <path d="M41.485,17.615 L39.43,20.492 C37.228,18.406 34.743,16.816 32.063,15.823 C31.993,15.797 31.925,15.766 31.855,15.741 C31.495,15.612 31.13,15.503 30.763,15.396 C30.516,15.323 30.269,15.252 30.02,15.19 C29.718,15.115 29.415,15.046 29.109,14.986 C29.06,14.976 29.012,14.963 28.963,14.953 C29.601,14.176 30,13.197 30,12.115 C30,9.634 27.981,7.615 25.5,7.615 C23.019,7.615 21,9.634 21,12.115 C21,13.196 21.399,14.176 22.036,14.953 C21.987,14.962 21.939,14.976 21.89,14.986 C21.584,15.046 21.281,15.115 20.979,15.19 C20.73,15.253 20.482,15.324 20.235,15.397 C19.869,15.504 19.505,15.613 19.146,15.741 C19.073,15.767 19.002,15.799 18.929,15.826 C18.141,16.118 17.373,16.465 16.62,16.857 C14.825,14.818 12.228,13.615 9.5,13.615 C4.262,13.615 0,17.877 0,23.115 C0,26.464 1.728,29.469 4.546,31.19 C3.7,33.354 3.034,35.672 2.597,38.13 C2.173,40.513 2.773,42.952 4.201,44.656 C5.26,45.919 6.654,46.615 8.128,46.615 L42.874,46.615 C44.348,46.615 45.742,45.919 46.801,44.656 C48.229,42.952 48.828,40.512 48.405,38.13 C47.629,33.766 46.159,29.821 44.169,26.459 L51.047,17.616 L41.485,17.616 L41.485,17.615 Z M28.784,16.959 C29.105,17.024 29.423,17.1 29.741,17.184 C30.018,17.257 30.295,17.332 30.568,17.419 C30.888,17.521 31.205,17.634 31.521,17.755 C31.629,17.796 31.736,17.841 31.843,17.884 C32.968,18.342 34.065,18.917 35.121,19.615 L15.924,19.615 C16.218,19.421 16.508,19.219 16.809,19.043 C16.854,19.017 16.897,18.987 16.942,18.962 L17.05,18.9 C17.738,18.512 18.441,18.176 19.154,17.885 C19.263,17.841 19.371,17.795 19.481,17.753 C19.796,17.632 20.113,17.52 20.432,17.418 C20.706,17.331 20.984,17.256 21.262,17.183 C21.579,17.099 21.897,17.024 22.217,16.959 C22.597,16.883 22.979,16.815 23.364,16.766 C23.536,16.743 23.708,16.724 23.88,16.706 C24.416,16.654 24.955,16.615 25.5,16.615 C26.045,16.615 26.584,16.653 27.12,16.706 C27.292,16.723 27.464,16.743 27.636,16.766 C28.022,16.815 28.404,16.883 28.784,16.959 L28.784,16.959 Z M25.5,9.615 C26.879,9.615 28,10.736 28,12.115 C28,13.494 26.879,14.615 25.5,14.615 C24.121,14.615 23,13.494 23,12.115 C23,10.736 24.121,9.615 25.5,9.615 L25.5,9.615 Z M2,23.115 C2,18.979 5.364,15.615 9.5,15.615 C11.523,15.615 13.46,16.448 14.863,17.886 C10.927,20.449 7.618,24.403 5.338,29.346 C3.257,27.966 2,25.661 2,23.115 L2,23.115 Z M45.267,43.371 C44.595,44.174 43.745,44.615 42.873,44.615 L8.127,44.615 C7.256,44.615 6.405,44.174 5.733,43.371 C4.697,42.135 4.249,40.26 4.565,38.479 C4.976,36.169 5.598,33.99 6.387,31.959 L6.729,31.153 C8.379,27.27 10.728,23.949 13.512,21.467 C13.696,21.553 13.892,21.614 14.104,21.614 L36.895,21.614 C37.127,21.614 37.341,21.543 37.539,21.441 C37.785,21.66 38.019,21.899 38.258,22.13 L38.255,22.134 L38.829,22.733 C40.019,23.977 41.116,25.393 42.086,26.943 L42.716,27.951 C44.447,31.006 45.736,34.559 46.433,38.479 C46.751,40.26 46.303,42.135 45.267,43.371 L45.267,43.371 Z M40.848,21.948 L42.515,19.615 L46.955,19.615 L43.023,24.671 C42.347,23.697 41.613,22.799 40.848,21.948 L40.848,21.948 Z" id="Shape"></path>
                <path d="M44.999,15.615 C45.316,15.615 45.628,15.465 45.822,15.184 L46.391,14.362 C46.705,13.908 46.592,13.285 46.138,12.97 C45.682,12.656 45.06,12.769 44.746,13.223 L44.177,14.045 C43.863,14.499 43.976,15.122 44.43,15.437 C44.604,15.558 44.803,15.615 44.999,15.615 L44.999,15.615 Z" id="Shape"></path>
                <path d="M47.383,12.173 C47.7,12.173 48.012,12.023 48.206,11.742 L49.415,9.995 C49.729,9.541 49.616,8.918 49.162,8.603 C48.706,8.288 48.085,8.403 47.77,8.856 L46.561,10.603 C46.247,11.057 46.36,11.68 46.814,11.995 C46.988,12.115 47.187,12.173 47.383,12.173 L47.383,12.173 Z" id="Shape"></path>
                <path d="M50.406,7.805 C50.723,7.805 51.035,7.655 51.229,7.374 L52.438,5.627 C52.752,5.173 52.639,4.55 52.185,4.235 C51.73,3.921 51.108,4.034 50.793,4.488 L49.584,6.235 C49.27,6.689 49.383,7.312 49.837,7.627 C50.012,7.747 50.21,7.805 50.406,7.805 L50.406,7.805 Z" id="Shape"></path>
                <path d="M53.43,3.438 C53.747,3.438 54.059,3.288 54.253,3.007 L54.822,2.185 C55.136,1.731 55.023,1.108 54.569,0.793 C54.113,0.479 53.491,0.592 53.177,1.046 L52.608,1.868 C52.294,2.322 52.407,2.945 52.861,3.26 C53.035,3.38 53.233,3.438 53.43,3.438 L53.43,3.438 Z" id="Shape"></path>
                <path d="M48.747,13.224 L48.178,14.046 C47.864,14.5 47.977,15.123 48.431,15.438 C48.605,15.558 48.803,15.616 48.999,15.616 C49.316,15.616 49.628,15.466 49.822,15.185 L50.391,14.363 C50.705,13.909 50.592,13.286 50.138,12.971 C49.684,12.656 49.062,12.77 48.747,13.224 L48.747,13.224 Z" id="Shape"></path>
                <path d="M51.305,9.53 L50.282,11.008 C49.968,11.462 50.081,12.085 50.535,12.4 C50.709,12.52 50.907,12.578 51.103,12.578 C51.42,12.578 51.732,12.428 51.926,12.147 L52.949,10.669 C53.263,10.215 53.15,9.592 52.696,9.277 C52.24,8.962 51.618,9.075 51.305,9.53 L51.305,9.53 Z" id="Shape"></path>
                <path d="M54.8,6.238 C54.345,5.923 53.723,6.037 53.408,6.491 L52.839,7.313 C52.525,7.767 52.638,8.39 53.092,8.705 C53.266,8.825 53.464,8.883 53.66,8.883 C53.977,8.883 54.289,8.733 54.483,8.452 L55.052,7.63 C55.367,7.175 55.254,6.552 54.8,6.238 L54.8,6.238 Z" id="Shape"></path>
            </g>
        </g>
    </g>
</svg>